<svg width="223" height="80" viewBox="0 0 223 80" fill="none" xmlns="http://www.w3.org/2000/svg">
<g clip-path="url(#clip0_642_3672)">
<path d="M199.494 58.2199C200.813 58.2199 201.605 58.3156 202.565 58.4353C203.354 58.555 204.051 58.7009 204.676 58.7727C204.915 58.7967 204.987 58.8924 204.987 59.0121C204.987 59.1796 204.939 59.419 204.891 60.1394C204.843 60.812 204.843 61.9393 204.819 62.3461C204.795 62.6334 204.723 62.8487 204.53 62.8487C204.362 62.8487 204.314 62.6812 204.314 62.4179C204.29 61.7693 204.027 61.0513 203.5 60.5224C202.78 59.8283 201.365 59.3233 199.422 59.3233C197.574 59.3233 196.399 59.6583 195.439 60.4745C193.881 61.8172 193.498 63.7845 193.496 65.7759C193.498 70.6201 197.239 72.9251 200.068 72.9227C201.94 72.9251 202.971 72.779 203.812 71.8432C204.171 71.4363 204.458 70.8619 204.53 70.4766C204.58 70.1655 204.628 70.0697 204.795 70.0697C204.939 70.0697 205.035 70.2611 205.035 70.4287C205.035 70.668 204.795 72.444 204.577 73.1405C204.484 73.4995 204.386 73.5952 204.027 73.7388C203.187 74.0763 201.581 74.1959 200.214 74.1959H199.709L197.912 75.5147C199.661 75.6822 200.741 76.3548 200.741 77.4342C200.741 78.394 199.757 80 196.327 80C196.112 80 195.92 79.9282 195.92 79.7607C195.92 79.5452 196.208 79.4471 196.543 79.4471C197.335 79.4471 198.558 78.8488 198.558 77.8411C198.558 77.1925 198.271 76.3309 196.662 76.0892C196.327 76.0413 196.136 75.9695 196.136 75.8977C196.136 75.8259 196.208 75.778 196.519 75.5387L198.438 74.1003C196.327 73.8824 194.48 73.2601 192.969 71.9892C190.882 70.2372 190.332 67.9348 190.332 65.9674C190.332 64.5768 190.787 62.1786 192.802 60.3788C194.336 59.0361 196.351 58.2199 199.494 58.2199Z" fill="black"/>
<path d="M132.141 58.5071C132.428 58.5071 132.571 58.5549 132.571 58.7009C132.571 58.8445 132.452 58.9163 132.188 58.9163C131.973 58.9163 131.827 58.9403 131.588 58.9881C131.013 59.0839 130.846 59.3711 130.798 60.0915C130.748 60.7377 130.748 61.3146 130.748 64.4093V68.1981C130.748 69.0621 130.822 70.0458 130.822 71.0774C130.822 72.2286 130.748 73.5234 130.317 74.6746C129.862 75.9216 128.567 77.3624 126.528 78.5615C126.262 78.7051 125.927 78.8727 125.473 79.0881C125.329 79.1599 125.135 79.1839 125.039 79.1839C124.944 79.1839 124.872 79.0881 124.872 78.9923C124.872 78.8966 124.968 78.8009 125.329 78.6333C125.616 78.4897 125.927 78.248 126.334 77.8411C127.943 76.283 127.919 74.2678 127.919 70.2612V64.4093C127.919 61.3146 127.919 60.7377 127.895 60.0915C127.847 59.395 127.655 59.1796 126.983 58.9881C126.815 58.9403 126.456 58.9163 126.143 58.9163C125.927 58.9163 125.784 58.8445 125.784 58.7009C125.784 58.5549 125.951 58.5071 126.262 58.5071C127.366 58.5071 128.902 58.5549 129.453 58.5549C129.958 58.5549 131.301 58.5071 132.141 58.5071Z" fill="black"/>
<path d="M150.536 58.5071C150.826 58.5071 150.97 58.5549 150.97 58.7009C150.97 58.8445 150.85 58.9163 150.611 58.9163C150.369 58.9163 150.249 58.9403 149.986 58.9881C149.409 59.0839 149.266 59.3711 149.218 60.0915C149.194 60.7377 149.17 61.3146 149.17 64.4093V66.592C149.17 68.8706 148.93 71.2688 147.155 72.7312C145.668 73.9805 144.062 74.1959 142.693 74.1959C141.59 74.1959 139.407 74.1481 137.873 72.803C136.793 71.8695 135.953 70.3569 135.953 67.4082V64.4093C135.953 61.3146 135.977 60.7377 135.929 60.0915C135.882 59.3711 135.69 59.1796 135.018 58.9881C134.85 58.9403 134.491 58.9163 134.204 58.9163C133.962 58.9163 133.842 58.8445 133.842 58.7009C133.842 58.5549 133.986 58.5071 134.299 58.5071C135.427 58.5071 136.841 58.5549 137.466 58.5549C137.993 58.5549 139.407 58.5071 140.175 58.5071C140.486 58.5071 140.63 58.5549 140.63 58.7009C140.63 58.8445 140.51 58.9163 140.295 58.9163C140.056 58.9163 139.936 58.9403 139.673 58.9881C139.12 59.0839 138.952 59.3711 138.904 60.0915C138.857 60.7377 138.857 61.3146 138.857 64.4093V67.2622C138.857 70.2372 139.431 71.3885 140.463 72.2046C141.398 72.949 142.406 73.0208 143.126 73.0208C144.038 73.0208 145.118 72.7551 145.955 71.9414C147.131 70.838 147.178 69.062 147.178 66.975V64.4093C147.178 61.3146 147.155 60.7377 147.131 60.0915C147.083 59.395 146.915 59.1796 146.245 58.9881C146.075 58.9403 145.716 58.9163 145.477 58.9163C145.237 58.9163 145.118 58.8445 145.118 58.7009C145.118 58.5549 145.261 58.5071 145.549 58.5071C146.628 58.5071 148.042 58.5549 148.066 58.5549C148.306 58.5549 149.723 58.5071 150.536 58.5071Z" fill="black"/>
<path d="M159.315 58.2199C160.685 58.2199 161.764 58.4113 162.314 58.5549C162.506 58.6052 162.602 58.6771 162.602 58.8207C162.602 59.0839 162.53 59.6608 162.53 61.2667C162.53 61.6976 162.434 61.9153 162.267 61.9129C162.123 61.9153 162.051 61.7933 162.051 61.5539C162.051 61.3625 161.955 60.7378 161.498 60.2112C161.187 59.8283 160.517 59.2515 159.148 59.2515C157.638 59.2515 156.271 60.0437 156.271 61.4342C156.271 62.3461 156.606 63.0666 158.502 64.1197L159.366 64.6007C162.147 66.1349 163.011 67.6955 163.011 69.5408C163.011 71.0534 162.434 72.2765 160.9 73.3559C159.892 74.0763 158.502 74.1959 157.374 74.1959C156.151 74.1959 154.854 74.0763 153.945 73.667C153.607 73.5234 153.535 73.4277 153.535 72.9705C153.535 71.8695 153.631 70.5963 153.655 70.2612C153.655 69.9501 153.751 69.7346 153.918 69.7346C154.112 69.7346 154.136 69.9261 154.136 70.0697C154.136 70.333 154.208 70.7662 154.328 71.1252C154.782 72.6355 156.367 73.1405 157.686 73.1405C159.509 73.1405 160.613 71.9892 160.613 70.5484C160.613 69.6628 160.395 68.7749 158.526 67.6715L157.303 66.9511C154.806 65.4887 153.993 64.122 153.993 62.3222C153.993 59.8282 156.391 58.2199 159.315 58.2199Z" fill="black"/>
<path d="M92.1538 58.5071C94.7937 58.5071 98.3432 58.5071 100.646 60.8359C101.701 61.8914 102.637 63.5931 102.637 66.0152C102.637 68.5834 101.534 70.5244 100.334 71.6996C99.3747 72.6594 97.1441 74.1003 93.2572 74.1003C92.4913 74.1003 91.5794 74.0284 90.7393 73.9805C89.8992 73.9063 89.1333 73.8585 88.6044 73.8585C88.365 73.8585 87.9102 73.8824 87.4052 73.8824C86.9026 73.9064 86.3737 73.9303 85.9428 73.9303C85.6796 73.9303 85.5336 73.8585 85.5336 73.7149C85.5336 73.6191 85.6054 73.4995 85.871 73.4995C86.1822 73.4995 86.4216 73.4755 86.613 73.4277C87.0462 73.3319 87.1659 72.949 87.2377 72.3482C87.3334 71.4842 87.3334 69.8782 87.3334 68.0066V64.4093C87.3334 61.3146 87.3334 60.7377 87.3095 60.0915C87.2616 59.395 87.0701 59.1796 86.3976 58.9881C86.2301 58.9403 85.871 58.9163 85.5575 58.9163C85.3421 58.9163 85.1985 58.8445 85.1985 58.7009C85.1985 58.5573 85.3661 58.5071 85.6796 58.5071C86.783 58.5071 88.1256 58.5573 88.724 58.5549C89.3726 58.5573 90.8829 58.5071 92.1538 58.5071ZM91.7469 59.5626C91.3161 59.5626 90.6196 59.6105 90.452 59.7062C90.2606 59.7804 90.1888 59.8761 90.1888 60.1155C90.1648 60.8119 90.1648 62.4897 90.1648 64.0981L90.1624 66.6638C90.1648 68.8227 90.1888 70.3808 90.2127 70.7901C90.2367 71.2927 90.2845 72.0132 90.452 72.2286C90.7153 72.6115 91.5554 73.0447 93.2093 73.0447C95.1288 73.0447 96.5433 72.7073 97.8166 71.6518C99.1833 70.5245 99.6141 68.703 99.6141 66.592C99.6141 64 98.5825 62.3222 97.6467 61.506C95.7056 59.7804 93.4031 59.5626 91.7469 59.5626Z" fill="black"/>
<path d="M115.277 58.3395C115.399 58.3395 115.423 58.4353 115.423 58.5311C115.423 58.6771 115.301 58.9164 115.253 59.8522C115.229 60.0676 115.181 60.9555 115.133 61.1949C115.109 61.2906 115.061 61.53 114.894 61.53C114.75 61.53 114.726 61.4343 114.726 61.2667C114.726 61.1231 114.702 60.7641 114.582 60.5224C114.415 60.1634 114.247 59.8762 113.19 59.7804C112.83 59.7326 110.313 59.6846 109.882 59.6823C109.784 59.6846 109.736 59.7564 109.736 59.8761V64.9119C109.736 65.0315 109.76 65.1273 109.882 65.1273C110.361 65.1273 113.094 65.1273 113.575 65.0794C114.077 65.0316 114.391 64.9837 114.582 64.7683C114.75 64.6247 114.822 64.505 114.918 64.505C115.013 64.505 115.085 64.6008 115.085 64.7204C115.085 64.8401 115.037 65.1752 114.918 66.2067C114.87 66.616 114.822 67.4322 114.822 67.5758C114.822 67.7433 114.798 68.0305 114.606 68.0305C114.463 68.0305 114.415 67.9587 114.415 67.863C114.391 67.6475 114.391 67.3843 114.343 67.1186C114.221 66.7117 113.958 66.4006 113.168 66.3264C112.783 66.2785 110.384 66.2306 109.858 66.2306C109.76 66.2306 109.736 66.3288 109.736 66.4484V68.0784C109.736 68.7748 109.712 70.5005 109.736 71.1012C109.784 72.4918 110.432 72.803 112.591 72.803C113.142 72.803 114.03 72.7791 114.582 72.5397C115.109 72.3004 115.351 71.8695 115.494 71.0294C115.542 70.814 115.59 70.7183 115.734 70.7183C115.901 70.7183 115.925 70.9816 115.925 71.197C115.925 71.6517 115.758 73.0447 115.638 73.4516C115.494 73.9805 115.301 73.9805 114.511 73.9805C112.926 73.9805 111.655 73.9542 110.624 73.9063C109.592 73.8824 108.802 73.8585 108.178 73.8585C107.938 73.8585 107.481 73.8824 106.979 73.8824C106.474 73.9064 105.947 73.9303 105.514 73.9303C105.251 73.9303 105.107 73.8585 105.107 73.7149C105.107 73.6191 105.179 73.4995 105.442 73.4995C105.756 73.4995 105.995 73.4755 106.186 73.4277C106.62 73.3319 106.739 72.949 106.811 72.3482C106.907 71.4842 106.907 69.8782 106.907 68.0066V64.4093C106.907 61.3146 106.907 60.7377 106.883 60.0915C106.835 59.395 106.644 59.1796 105.971 58.9881C105.803 58.9403 105.442 58.9163 105.131 58.9163C104.915 58.9163 104.772 58.8445 104.772 58.7009C104.772 58.5549 104.939 58.5071 105.251 58.5071C106.354 58.5071 107.699 58.5549 108.297 58.5549C108.97 58.5549 113.647 58.5813 114.054 58.5549C114.439 58.531 114.774 58.4592 114.942 58.4353C115.061 58.4114 115.181 58.3395 115.277 58.3395Z" fill="black"/>
<path d="M165.577 58.2199C165.744 58.2199 165.962 58.3874 166.489 58.4593C167.113 58.5311 167.903 58.5549 168.6 58.5549H177.163C177.833 58.5549 178.291 58.5071 178.602 58.4593C178.937 58.4114 179.104 58.3635 179.178 58.3635C179.322 58.3635 179.346 58.4832 179.346 58.7967C179.346 59.2275 179.298 60.7378 179.298 61.2667C179.274 61.4822 179.226 61.6018 179.104 61.6018C178.937 61.6018 178.889 61.506 178.865 61.1949L178.841 60.9795C178.793 60.4505 178.243 59.8282 176.347 59.8043L173.686 59.7541V68.0066C173.686 69.8782 173.71 71.4842 173.805 72.3722C173.877 72.949 173.997 73.3319 174.619 73.4277C174.909 73.4755 175.387 73.4995 175.698 73.4995C175.94 73.4995 176.036 73.6191 176.036 73.7149C176.036 73.8585 175.868 73.9303 175.627 73.9303C174.236 73.9303 172.822 73.8585 172.221 73.8585C171.742 73.8585 170.301 73.9303 169.464 73.9303C169.198 73.9303 169.054 73.8585 169.054 73.7149C169.054 73.6191 169.126 73.4995 169.392 73.4995C169.703 73.4995 169.966 73.4755 170.134 73.4277C170.567 73.3319 170.687 72.949 170.758 72.3482C170.854 71.4842 170.854 69.8782 170.854 68.0066V59.7541L167.712 59.8283C166.489 59.8522 165.986 59.9958 165.672 60.4506C165.457 60.7378 165.361 61.0034 165.313 61.147C165.266 61.3146 165.218 61.4103 165.074 61.4103C164.93 61.4103 164.883 61.2906 164.88 61.0752C164.883 60.7378 165.289 58.7728 165.337 58.6029C165.385 58.3396 165.457 58.2199 165.577 58.2199Z" fill="black"/>
<path d="M187.429 58.5071C187.692 58.5071 187.859 58.555 187.859 58.6771C187.859 58.8685 187.74 58.9163 187.524 58.9163C187.309 58.9163 187.141 58.9403 186.902 58.9881C186.325 59.0839 186.158 59.3711 186.11 60.0915C186.062 60.7377 186.062 61.3146 186.062 64.4093V68.0066C186.062 69.9739 186.062 71.6039 186.158 72.4679C186.229 73.0208 186.373 73.3319 186.998 73.4277C187.285 73.4755 187.764 73.4995 188.077 73.4995C188.317 73.4995 188.412 73.6191 188.412 73.7149C188.412 73.8585 188.245 73.9303 188.005 73.9303C186.612 73.9303 185.174 73.8585 184.597 73.8585C184.118 73.8585 182.68 73.9303 181.84 73.9303C181.577 73.9303 181.433 73.8585 181.433 73.7149C181.433 73.6191 181.505 73.4995 181.768 73.4995C182.079 73.4995 182.319 73.4755 182.512 73.4277C182.943 73.3319 183.063 73.0447 183.135 72.444C183.23 71.6039 183.231 69.9739 183.231 68.0066V64.4093C183.231 61.3146 183.23 60.7377 183.207 60.0915C183.159 59.395 182.943 59.1557 182.489 59.0121C182.247 58.9403 181.984 58.9163 181.72 58.9163C181.505 58.9163 181.385 58.8685 181.385 58.6771C181.385 58.555 181.553 58.5071 181.888 58.5071C182.68 58.5071 184.118 58.5549 184.719 58.5549C185.246 58.5549 186.612 58.5071 187.429 58.5071Z" fill="black"/>
<path d="M213.526 58.0284C213.838 58.0284 213.933 58.2199 214.149 58.6771C214.654 59.8044 218.179 68.1502 219.522 71.2448C220.338 73.0926 220.936 73.3559 221.322 73.4277C221.633 73.4755 221.872 73.4995 222.114 73.4995C222.305 73.4995 222.401 73.5713 222.401 73.7149C222.401 73.8824 222.282 73.9303 221.489 73.9303C220.745 73.9303 219.211 73.9303 217.435 73.8824C217.052 73.8585 216.813 73.8585 216.813 73.7149C216.813 73.5952 216.86 73.5234 217.076 73.4995C217.219 73.4755 217.363 73.2841 217.267 73.0447L215.637 68.9424C215.59 68.8228 215.518 68.7988 215.42 68.7988H210.456C210.336 68.7988 210.312 68.8228 210.264 68.9424L209.137 71.6757C208.921 72.1807 208.823 72.6833 208.823 72.9227C208.823 73.2841 209.017 73.4995 209.663 73.4995H209.977C210.24 73.4995 210.288 73.5952 210.288 73.7149C210.288 73.8824 210.168 73.9303 209.951 73.9303C209.257 73.9303 208.273 73.8585 207.6 73.8585C207.385 73.8585 206.258 73.9303 205.154 73.9303C204.891 73.9303 204.771 73.8824 204.771 73.7149C204.771 73.5952 204.843 73.4995 205.011 73.4995L205.633 73.4755C206.593 73.3319 206.954 72.7073 207.385 71.6757L212.902 58.8445C213.141 58.2677 213.311 58.0284 213.526 58.0284ZM212.974 62.1786C212.902 62.1786 212.878 62.2983 212.854 62.3701L210.815 67.5279C210.767 67.6236 210.815 67.6715 210.886 67.6715H214.965C215.061 67.6715 215.085 67.6236 215.061 67.5518L213.069 62.3701C213.045 62.2983 213.021 62.1786 212.974 62.1786Z" fill="black"/>
<path d="M157.757 29.7238C158.045 29.7238 158.188 29.7717 158.188 29.9177C158.188 30.0613 158.069 30.1331 157.829 30.1331C157.59 30.1331 157.47 30.157 157.204 30.2049C156.63 30.3006 156.486 30.5878 156.439 31.3083C156.415 31.9545 156.391 32.5313 156.391 35.626V37.8088C156.391 40.0873 156.151 42.4855 154.375 43.9479C152.889 45.1949 151.281 45.4127 149.914 45.4127C148.811 45.4127 146.628 45.3648 145.091 44.0197C144.014 43.0839 143.174 41.5736 143.174 38.6225V35.626C143.174 32.5313 143.198 31.9545 143.15 31.3083C143.102 30.5878 142.911 30.3964 142.238 30.2049C142.071 30.157 141.709 30.1331 141.422 30.1331C141.183 30.1331 141.063 30.0613 141.063 29.9177C141.063 29.7717 141.207 29.7238 141.518 29.7238C142.645 29.7238 144.062 29.7717 144.685 29.7717C145.213 29.7717 146.628 29.7238 147.396 29.7238C147.707 29.7238 147.851 29.7717 147.851 29.9177C147.851 30.0613 147.731 30.1331 147.516 30.1331C147.277 30.1331 147.155 30.157 146.891 30.2049C146.341 30.3006 146.173 30.5878 146.123 31.3083C146.075 31.9545 146.075 32.5313 146.075 35.626V38.4789C146.075 41.454 146.652 42.6052 147.683 43.4214C148.619 44.1633 149.627 44.2375 150.345 44.2351C151.257 44.2375 152.336 43.9719 153.176 43.1557C154.352 42.0547 154.399 40.2788 154.399 38.1917V35.626C154.399 32.5313 154.375 31.9545 154.352 31.3083C154.304 30.6118 154.136 30.3964 153.464 30.2049C153.296 30.157 152.937 30.1331 152.695 30.1331C152.456 30.1331 152.336 30.0613 152.336 29.9177C152.336 29.7717 152.48 29.7238 152.767 29.7238C153.847 29.7238 155.263 29.7717 155.287 29.7717C155.527 29.7717 156.941 29.7238 157.757 29.7238Z" fill="black"/>
<path d="M161.618 29.3648C161.884 29.3648 162.171 29.676 162.53 30.0374C162.796 30.3007 165.962 33.539 169.03 36.5355C170.471 37.9524 173.276 40.8293 173.587 41.1189H173.683L173.468 32.0503C173.444 30.8033 173.252 30.4443 172.75 30.2528C172.436 30.1331 171.934 30.1331 171.646 30.1331C171.381 30.1331 171.309 30.0374 171.309 29.9177C171.309 29.7478 171.527 29.7238 171.838 29.7238C172.941 29.7238 174.069 29.7717 174.523 29.7717C174.763 29.7717 175.555 29.7238 176.586 29.7238C176.874 29.7238 177.067 29.7478 177.067 29.9177C177.067 30.0374 176.945 30.1331 176.706 30.1331C176.491 30.1331 176.323 30.1331 176.06 30.2049C175.483 30.3724 175.315 30.7315 175.292 31.8827L175.052 44.7401C175.052 45.1949 174.885 45.3888 174.715 45.3864C174.356 45.3888 174.069 45.171 173.853 44.9556C172.532 43.7326 169.894 41.2146 167.688 39.0797C165.385 36.873 163.155 34.403 162.748 34.0416H162.676L162.915 42.3659C162.963 43.948 163.226 44.429 163.633 44.5726C163.995 44.6923 164.401 44.7162 164.737 44.7162C164.978 44.7162 165.098 44.812 165.098 44.9316C165.098 45.0992 164.906 45.147 164.617 45.147C163.25 45.147 162.267 45.0752 161.884 45.0752C161.692 45.0752 160.685 45.147 159.605 45.147C159.315 45.147 159.124 45.1231 159.124 44.9316C159.124 44.812 159.268 44.7162 159.459 44.7162C159.749 44.7162 160.132 44.6923 160.419 44.6205C160.972 44.4769 161.044 43.924 161.067 42.1505L161.259 30.0613C161.259 29.652 161.403 29.3648 161.618 29.3648Z" fill="black"/>
<path d="M133.1 29.7238C136.913 29.7238 137.586 31.6913 137.586 32.7707C137.586 34.3551 136.41 35.5781 135.209 36.344C136.937 36.8969 139.096 38.3593 139.096 40.7575C139.096 42.9403 137.37 45.1949 133.483 45.1949C133.244 45.1949 132.524 45.1709 131.803 45.1231C131.085 45.0991 130.341 45.0752 130.006 45.0752C129.766 45.0752 129.309 45.0992 128.807 45.0992C128.302 45.1231 127.775 45.147 127.342 45.147C127.079 45.147 126.935 45.0752 126.935 44.9316C126.935 44.8359 127.007 44.7162 127.27 44.7162C127.584 44.7162 127.823 44.6923 128.014 44.6444C128.445 44.5487 128.567 44.1633 128.637 43.565C128.735 42.7009 128.735 41.095 128.735 39.2233V35.626C128.735 32.5313 128.735 31.9545 128.711 31.3083C128.663 30.6118 128.469 30.3964 127.799 30.2049C127.631 30.157 127.27 30.1331 126.959 30.1331C126.743 30.1331 126.6 30.0613 126.6 29.9177C126.6 29.7717 126.767 29.7238 127.079 29.7238C128.182 29.7238 129.525 29.7717 129.934 29.7717C130.989 29.7717 132.38 29.7238 133.1 29.7238ZM132.5 37.1841H131.588C131.516 37.1841 131.468 37.2081 131.468 37.3277V41.9566C131.468 43.3017 131.54 43.7086 132.212 43.9719C132.763 44.1873 133.244 44.2112 133.723 44.2112C134.85 44.2112 136.315 43.5889 136.312 41.3343C136.315 40.3985 135.905 38.7925 134.323 37.7131C133.89 37.3996 133.316 37.1841 132.5 37.1841ZM132.571 30.6596C132.284 30.6596 131.877 30.6597 131.66 30.7076C131.516 30.7315 131.468 30.8272 131.468 31.0426V35.9611C131.468 36.1286 131.54 36.1526 131.612 36.1765C131.803 36.2244 132.117 36.2483 132.595 36.2483C133.292 36.2483 133.89 36.1765 134.252 35.8893C134.802 35.4584 135.211 34.7141 135.209 33.7305C135.211 32.3638 134.395 30.6596 132.571 30.6596Z" fill="black"/>
<path d="M201.342 29.7238C201.653 29.7238 201.796 29.7717 201.796 29.9177C201.796 30.0613 201.677 30.1331 201.413 30.1331C201.172 30.1331 200.836 30.157 200.597 30.2049C200.02 30.3006 199.853 30.5878 199.805 31.3083C199.757 31.9545 199.757 32.5313 199.757 35.626V39.2233C199.757 41.8369 199.757 43.1342 200.214 43.5171C200.573 43.8283 201.389 43.9479 203.019 43.9479C204.147 43.9479 204.963 43.924 205.489 43.3735C205.755 43.1078 205.97 42.5335 206.018 42.1505C206.042 41.9566 206.09 41.8369 206.258 41.8369C206.401 41.8369 206.449 42.0548 206.449 42.2941C206.449 42.5335 206.305 44.0437 206.138 44.6444C205.994 45.0992 205.899 45.1949 204.795 45.1949C203.283 45.1949 202.06 45.1709 201.004 45.1231C199.949 45.0991 199.063 45.0752 198.199 45.0752C197.96 45.0752 197.502 45.0992 197 45.0992C196.495 45.1231 195.968 45.147 195.535 45.147C195.272 45.147 195.128 45.0752 195.128 44.9316C195.128 44.8359 195.2 44.7162 195.463 44.7162C195.777 44.7162 196.016 44.6923 196.208 44.6444C196.638 44.5487 196.758 44.1633 196.83 43.565C196.928 42.7009 196.928 41.095 196.928 39.2233V35.626C196.928 32.5313 196.928 31.9545 196.904 31.3083C196.856 30.6118 196.662 30.3964 195.992 30.2049C195.825 30.157 195.559 30.1331 195.296 30.1331C195.056 30.1331 194.937 30.0613 194.937 29.9177C194.937 29.7717 195.08 29.7238 195.391 29.7238C196.375 29.7238 197.718 29.7717 198.295 29.7717C198.797 29.7717 200.525 29.7238 201.342 29.7238Z" fill="black"/>
<path d="M84.8634 29.4366C85.031 29.4366 85.2464 29.6042 85.7753 29.676C86.3976 29.7478 87.1898 29.7717 87.8863 29.7717H96.4476C97.1201 29.7717 97.5749 29.7239 97.8884 29.676C98.2235 29.6281 98.391 29.5802 98.4628 29.5802C98.6064 29.5802 98.6304 29.6999 98.6304 30.0135C98.6304 30.4443 98.5825 31.9545 98.5825 32.4835C98.5586 32.6989 98.5107 32.8185 98.391 32.8185C98.2235 32.8185 98.1756 32.7228 98.1517 32.4117L98.1277 32.1939C98.0799 31.6673 97.527 31.045 95.6338 31.0211L92.9699 30.9708V39.2233C92.9699 41.095 92.9939 42.701 93.0896 43.5889C93.1614 44.1633 93.2811 44.5487 93.9058 44.6444C94.193 44.6923 94.6741 44.7162 94.9852 44.7162C95.2245 44.7162 95.3203 44.8359 95.3203 44.9316C95.3203 45.0752 95.1527 45.147 94.9134 45.147C93.5228 45.147 92.1059 45.0752 91.5076 45.0752C91.0265 45.0752 89.588 45.147 88.748 45.147C88.4847 45.147 88.3411 45.0752 88.3411 44.9316C88.3411 44.8359 88.4129 44.7162 88.6762 44.7162C88.9897 44.7162 89.2529 44.6923 89.4205 44.6444C89.8513 44.5487 89.971 44.1633 90.0452 43.565C90.1409 42.7009 90.1409 41.095 90.1409 39.2233V30.9708L86.9984 31.0426C85.7753 31.0689 85.2703 31.2126 84.9592 31.6673C84.7437 31.9545 84.648 32.2202 84.5977 32.3638C84.5523 32.5313 84.502 32.6271 84.3584 32.6271C84.2148 32.6271 84.1669 32.5074 84.1669 32.292C84.1669 31.9545 84.5762 29.9895 84.6241 29.8196C84.6719 29.5563 84.7438 29.4366 84.8634 29.4366Z" fill="black"/>
<path d="M123.17 29.7238C123.433 29.7238 123.601 29.7717 123.601 29.8914C123.601 30.0853 123.481 30.1331 123.266 30.1331C123.05 30.1331 122.88 30.157 122.641 30.2049C122.067 30.3006 121.897 30.5878 121.849 31.3083C121.801 31.9545 121.801 32.5313 121.801 35.626V39.2233C121.801 41.1907 121.801 42.8206 121.897 43.6847C121.971 44.2375 122.115 44.5487 122.737 44.6444C123.024 44.6923 123.505 44.7162 123.816 44.7162C124.056 44.7162 124.154 44.8359 124.154 44.9316C124.154 45.0752 123.984 45.147 123.744 45.147C122.354 45.147 120.915 45.0752 120.339 45.0752C119.86 45.0752 118.419 45.147 117.579 45.147C117.237 45.0872 117.333 45.1805 117.21 44.989C117.086 45.1901 117.184 45.0968 116.837 45.147H114.822C113.647 45.147 113.07 45.0273 112.519 44.7401C111.607 44.2854 110.815 43.3256 109.64 41.7412C108.802 40.6378 107.914 39.2712 107.651 38.9601C107.529 38.8404 107.409 38.8165 107.266 38.8165L105.37 38.7686C105.274 38.7686 105.203 38.8164 105.203 38.9361V39.2233C105.203 41.1189 105.227 42.7009 105.322 43.565C105.394 44.1633 105.492 44.5487 106.139 44.6444C106.45 44.6923 106.907 44.7162 107.17 44.7162C107.338 44.7162 107.433 44.8359 107.433 44.9316C107.433 45.0752 107.266 45.147 107.003 45.147C105.78 45.147 104.028 45.0752 103.716 45.0752C103.31 45.0752 101.964 45.147 101.124 45.147C100.861 45.147 100.717 45.0752 100.717 44.9316C100.717 44.8359 100.789 44.7162 101.052 44.7162C101.366 44.7162 101.605 44.6923 101.797 44.6444C102.23 44.5487 102.35 44.1633 102.422 43.565C102.517 42.7009 102.517 41.095 102.517 39.2233V35.626C102.517 32.5313 102.517 31.9545 102.493 31.3083C102.445 30.6118 102.254 30.3964 101.581 30.2049C101.414 30.157 101.055 30.1331 100.741 30.1331C100.526 30.1331 100.382 30.0613 100.382 29.9177C100.382 29.7717 100.55 29.7238 100.861 29.7238C101.964 29.7238 103.309 29.7717 103.74 29.7717C104.461 29.7717 106.378 29.7238 107.026 29.7238C108.369 29.7238 109.906 29.8435 111.033 30.5879C111.631 30.9971 112.519 32.0263 112.519 33.3953C112.519 34.9056 111.655 36.2483 109.592 37.9045C111.464 40.207 112.95 42.0548 114.221 43.3257C115.399 44.5008 116.141 44.5965 116.476 44.6683C116.693 44.7162 116.813 44.7162 116.981 44.7162C117.198 44.7976 117.146 44.7258 117.208 44.8574C117.282 44.7042 117.218 44.7952 117.507 44.7162C117.821 44.7162 118.06 44.6923 118.252 44.6444C118.685 44.5487 118.804 44.2615 118.876 43.6607C118.972 42.8206 118.972 41.1907 118.972 39.2233V35.626C118.972 32.5313 118.972 31.9545 118.948 31.3083C118.9 30.6118 118.685 30.3725 118.228 30.2289C117.988 30.157 117.725 30.1331 117.459 30.1331C117.244 30.1331 117.124 30.0853 117.124 29.8914C117.124 29.7717 117.292 29.7238 117.629 29.7238C118.419 29.7238 119.86 29.7717 120.458 29.7717C120.987 29.7717 122.354 29.7238 123.17 29.7238ZM106.644 30.7794C106.115 30.7794 105.612 30.8033 105.394 30.8512C105.251 30.899 105.203 30.9708 105.203 31.1408V37.2081C105.203 37.4235 105.251 37.4953 105.394 37.5671C105.851 37.7131 106.474 37.7609 107.003 37.7609C107.843 37.7609 108.13 37.6892 108.489 37.4235C109.137 36.9687 109.858 36.0808 109.858 34.4006C109.858 31.5237 107.89 30.7794 106.644 30.7794Z" fill="black"/>
<path d="M185.748 29.2451C186.062 29.2451 186.158 29.4367 186.373 29.8938C186.878 31.0211 190.404 39.3669 191.746 42.4616C192.562 44.3093 193.161 44.5726 193.546 44.6444C193.857 44.6923 194.097 44.7162 194.336 44.7162C194.527 44.7162 194.626 44.788 194.626 44.9316C194.626 45.0992 194.504 45.147 193.714 45.147C192.969 45.147 191.435 45.1471 189.659 45.0992C189.276 45.0753 189.035 45.0752 189.035 44.9316C189.035 44.812 189.085 44.7402 189.3 44.7162C189.444 44.6923 189.587 44.5008 189.492 44.2615L187.859 40.1592C187.812 40.0395 187.74 40.0155 187.644 40.0155H182.68C182.56 40.0155 182.536 40.0395 182.489 40.1592L181.359 42.8925C181.143 43.3975 181.048 43.9001 181.048 44.1394C181.048 44.5008 181.239 44.7162 181.888 44.7162H182.199C182.465 44.7162 182.512 44.812 182.512 44.9316C182.512 45.0992 182.39 45.147 182.175 45.147C181.481 45.147 180.497 45.0752 179.825 45.0752C179.609 45.0752 178.482 45.147 177.379 45.147C177.115 45.147 176.996 45.0992 176.996 44.9316C176.996 44.812 177.067 44.7162 177.235 44.7162L177.857 44.6923C178.817 44.5487 179.178 43.924 179.609 42.8925L185.126 30.0613C185.365 29.4845 185.533 29.2451 185.748 29.2451ZM185.198 33.3953C185.126 33.3953 185.102 33.5151 185.078 33.5869L183.039 38.7447C182.991 38.8404 183.039 38.8883 183.111 38.8883H187.189C187.285 38.8883 187.309 38.8404 187.285 38.7686L185.294 33.5869C185.27 33.5151 185.246 33.3953 185.198 33.3953Z" fill="black"/>
<path d="M190.99 0.653397C196.315 0.653397 199.625 3.60447 199.625 8.28121C199.625 12.958 196.22 16.6271 190.775 16.6271C184.633 16.6271 182.139 12.2615 182.139 8.64021C182.139 5.16257 184.585 0.653397 190.99 0.653397ZM190.368 1.73284C188.017 1.73284 185.258 2.97979 185.258 8.01793C185.258 12.2136 187.656 15.5237 191.639 15.5237C193.125 15.5237 196.483 14.8296 196.483 9.02317C196.483 4.51397 193.774 1.73284 190.368 1.73284Z" fill="black"/>
<path d="M113.958 0.940595C114.245 0.940595 114.391 0.988468 114.391 1.13207C114.391 1.27568 114.271 1.34987 114.03 1.34747C113.79 1.34987 113.671 1.3738 113.407 1.41927C112.831 1.5174 112.687 1.80461 112.639 2.52263C112.615 3.17125 112.591 3.74807 112.591 6.84036V9.02317C112.591 11.3041 112.352 13.7023 110.576 15.1647C109.09 16.4117 107.481 16.6271 106.115 16.6271C105.011 16.6271 102.828 16.5792 101.294 15.2365C100.215 14.3007 99.3747 12.7904 99.3747 9.83933V6.84036C99.3747 3.74807 99.3986 3.17125 99.3508 2.52263C99.3029 1.80461 99.1114 1.61314 98.4389 1.41927C98.2713 1.3738 97.9123 1.34987 97.6227 1.34747C97.3834 1.34987 97.2637 1.27568 97.2637 1.13207C97.2637 0.988468 97.4073 0.940595 97.7185 0.940595C98.8482 0.940595 100.263 0.988474 100.885 0.988474C101.414 0.988474 102.828 0.940595 103.597 0.940595C103.908 0.940595 104.051 0.988468 104.051 1.13207C104.051 1.27568 103.932 1.34987 103.716 1.34747C103.477 1.34987 103.357 1.3738 103.092 1.41927C102.541 1.5174 102.374 1.80461 102.326 2.52263C102.278 3.17125 102.278 3.74807 102.278 6.84036V9.69573C102.278 12.6707 102.852 13.822 103.884 14.6381C104.82 15.3801 105.827 15.4519 106.545 15.4519C107.457 15.4519 108.537 15.1886 109.377 14.3725C110.552 13.2691 110.6 11.4956 110.6 9.40853V6.84036C110.6 3.74807 110.576 3.17125 110.552 2.52263C110.504 1.82854 110.337 1.61314 109.664 1.41927C109.496 1.3738 109.137 1.34987 108.898 1.34747C108.656 1.34987 108.537 1.27568 108.537 1.13207C108.537 0.988468 108.68 0.940595 108.97 0.940595C110.049 0.940595 111.464 0.988474 111.488 0.988474C111.727 0.988474 113.142 0.940595 113.958 0.940595Z" fill="black"/>
<path d="M91.5554 0.653397C92.922 0.653397 94.0015 0.844869 94.5544 0.988474C94.7458 1.03634 94.8416 1.10815 94.8416 1.25175C94.8416 1.51742 94.7698 2.09183 94.7698 3.70021C94.7698 4.13102 94.674 4.34644 94.5065 4.34644C94.3605 4.34644 94.2887 4.22678 94.2887 3.98744C94.2887 3.79597 94.193 3.17127 93.7382 2.64472C93.4271 2.25938 92.7545 1.68496 91.3879 1.68496C89.8752 1.68496 88.5086 2.47719 88.5086 3.86776C88.5086 4.77965 88.8437 5.49767 90.7393 6.55316L91.6033 7.03425C94.3844 8.56843 95.2484 10.1265 95.2484 11.9743C95.2484 13.4869 94.6741 14.71 93.1375 15.7894C92.1298 16.5074 90.7393 16.6271 89.612 16.6271C88.3889 16.6271 87.0941 16.5074 86.1822 16.1005C85.8471 15.9569 85.7753 15.8612 85.7753 15.404C85.7753 14.3007 85.8711 13.0297 85.895 12.6947C85.895 12.3835 85.9907 12.1657 86.1583 12.1657C86.3497 12.1657 86.3737 12.3596 86.3737 12.5032C86.3737 12.7665 86.4455 13.1973 86.5651 13.5587C87.0223 15.0689 88.6043 15.5716 89.9231 15.5716C91.7469 15.5716 92.8502 14.4203 92.8502 12.9819C92.8502 12.0939 92.6348 11.206 90.7632 10.1026L89.5402 9.38457C87.0462 7.9222 86.2301 6.55318 86.2301 4.75573C86.2301 2.25939 88.6283 0.653397 91.5554 0.653397Z" fill="black"/>
<path d="M156.917 0.773075C157.037 0.773075 157.061 0.868816 157.061 0.964553C157.061 1.10816 156.941 1.34988 156.893 2.28331C156.869 2.50111 156.822 3.38667 156.774 3.62841C156.75 3.72414 156.702 3.96348 156.534 3.96348C156.391 3.96348 156.367 3.86775 156.367 3.70021C156.367 3.5566 156.343 3.19518 156.223 2.95584C156.053 2.59683 155.886 2.30725 154.83 2.21151C154.471 2.16365 151.953 2.11576 151.52 2.11576C151.424 2.11576 151.377 2.18756 151.377 2.30723V7.34541C151.377 7.46508 151.4 7.56081 151.52 7.56081C152.001 7.56081 154.734 7.5608 155.216 7.51293C155.718 7.46506 156.029 7.41718 156.223 7.20177C156.391 7.05817 156.463 6.93849 156.558 6.93849C156.654 6.93849 156.726 7.03426 156.726 7.15393C156.726 7.2736 156.678 7.60865 156.558 8.64021C156.51 9.04948 156.463 9.86328 156.463 10.0069C156.463 10.1768 156.439 10.464 156.247 10.464C156.104 10.464 156.053 10.3922 156.053 10.2965C156.029 10.0787 156.029 9.81541 155.981 9.55213C155.862 9.14525 155.598 8.83169 154.806 8.75989C154.423 8.71202 152.025 8.66417 151.496 8.66417C151.4 8.66417 151.377 8.7599 151.377 8.87957V10.5119C151.377 11.206 151.353 12.934 151.377 13.5348C151.424 14.9254 152.073 15.2365 154.232 15.2365C154.782 15.2365 155.67 15.2126 156.223 14.9732C156.75 14.7339 156.989 14.3007 157.133 13.463C157.183 13.2452 157.231 13.1494 157.374 13.1494C157.542 13.1494 157.566 13.4127 157.566 13.6305C157.566 14.0853 157.398 15.4758 157.279 15.8851C157.133 16.4117 156.941 16.4116 156.151 16.4116C154.567 16.4116 153.296 16.3877 152.264 16.3398C151.233 16.3159 150.441 16.292 149.818 16.292C149.579 16.292 149.122 16.3159 148.619 16.3159C148.114 16.3399 147.588 16.3638 147.155 16.3638C146.812 16.3039 146.908 16.3973 146.784 16.2058C146.661 16.4068 146.76 16.3135 146.413 16.3638H144.397C143.222 16.3638 142.645 16.2442 142.095 15.9569C141.183 15.4998 140.391 14.5424 139.216 12.9579C138.375 11.8546 137.49 10.488 137.224 10.1768C137.105 10.0548 136.985 10.0308 136.841 10.0308L134.946 9.98293C134.85 9.98293 134.778 10.0308 134.778 10.1529V10.4401C134.778 12.3357 134.802 13.9177 134.898 14.7817C134.97 15.3801 135.065 15.7654 135.714 15.8612C136.025 15.9091 136.482 15.933 136.746 15.933C136.913 15.933 137.009 16.0526 137.009 16.1484C137.009 16.292 136.841 16.3638 136.578 16.3638C135.355 16.3638 133.603 16.292 133.292 16.292C132.883 16.292 131.54 16.3638 130.7 16.3638C130.437 16.3638 130.293 16.292 130.293 16.1484C130.293 16.0526 130.365 15.933 130.628 15.933C130.942 15.933 131.181 15.9091 131.372 15.8612C131.803 15.7654 131.925 15.3801 131.997 14.7817C132.093 13.9177 132.093 12.3094 132.093 10.4401V6.84277C132.093 3.74808 132.093 3.17127 132.069 2.52504C132.021 1.82856 131.827 1.61314 131.157 1.41927C130.989 1.3738 130.628 1.34987 130.317 1.34747C130.101 1.34987 129.958 1.27568 129.958 1.13207C129.958 0.988468 130.125 0.940595 130.437 0.940595C131.54 0.940595 132.883 0.988474 133.316 0.988474C134.034 0.988474 135.953 0.940595 136.602 0.940595C137.945 0.940595 139.479 1.06028 140.606 1.80464C141.207 2.21152 142.095 3.24308 142.095 4.60972C142.095 6.12236 141.231 7.46505 139.168 9.1213C141.039 11.4238 142.526 13.2691 143.797 14.5424C144.972 15.7176 145.716 15.8133 146.051 15.8851C146.269 15.933 146.389 15.933 146.556 15.933C146.774 16.012 146.721 15.9425 146.784 16.0742C146.855 15.921 146.793 16.012 147.083 15.933C147.396 15.933 147.636 15.9091 147.827 15.8612C148.258 15.7654 148.38 15.3801 148.449 14.7817C148.548 13.9177 148.548 12.3094 148.548 10.4401V6.84277C148.548 3.74808 148.547 3.17127 148.524 2.52504C148.476 1.82856 148.282 1.61314 147.612 1.41927C147.444 1.3738 147.083 1.34987 146.772 1.34747C146.556 1.34987 146.413 1.27568 146.413 1.13207C146.413 0.988468 146.58 0.940595 146.891 0.940595C147.995 0.940595 149.337 0.988474 149.938 0.988474C150.611 0.988474 155.287 1.01241 155.694 0.988474C156.08 0.96454 156.415 0.89273 156.582 0.868795C156.702 0.844861 156.822 0.773075 156.917 0.773075ZM136.217 1.99612C135.69 1.99612 135.187 2.02005 134.97 2.06791C134.826 2.11578 134.778 2.18757 134.778 2.35511V8.42481C134.778 8.64022 134.826 8.71204 134.97 8.78385C135.427 8.92745 136.049 8.97532 136.578 8.97532C137.418 8.97532 137.705 8.90349 138.064 8.64021C138.713 8.18546 139.431 7.29754 139.431 5.61736C139.431 2.74047 137.466 1.99612 136.217 1.99612Z" fill="black"/>
<path d="M176.084 0.48584C176.251 0.48584 176.491 0.701258 176.562 1.13207L178.482 13.7262C178.673 14.9971 178.865 15.5476 179.514 15.7391C180.112 15.909 180.449 15.933 180.713 15.933C180.904 15.933 181.048 16.0048 181.048 16.1244C181.048 16.292 180.808 16.3638 180.497 16.3638C179.968 16.3638 176.972 16.2681 176.132 16.2202C175.627 16.1962 175.507 16.1005 175.507 15.9808C175.507 15.8851 175.603 15.8133 175.746 15.7654C175.868 15.7176 175.916 15.4758 175.842 14.9014L174.667 6.07449H174.595L170.062 15.1886C169.583 16.1484 169.464 16.3398 169.222 16.3398C168.959 16.3398 168.719 15.933 168.384 15.3083C167.879 14.3725 166.201 11.2562 165.96 10.6794C165.792 10.2965 164.545 7.72832 163.849 6.31381H163.779L162.772 14.2767C162.724 14.6381 162.7 14.9014 162.697 15.2365C162.7 15.6194 162.987 15.7654 163.346 15.8372C163.705 15.909 163.899 15.933 164.09 15.933C164.282 15.933 164.425 16.0287 164.425 16.1244C164.425 16.3159 164.234 16.3638 163.923 16.3638C163.035 16.3638 162.075 16.292 161.692 16.292C161.283 16.292 160.275 16.3638 159.605 16.3638C159.39 16.3638 159.22 16.3159 159.22 16.1244C159.22 16.0287 159.339 15.933 159.557 15.933C159.725 15.933 159.868 15.933 160.203 15.8851C160.78 15.8133 160.972 14.9971 161.067 14.3246L163.155 1.01239C163.202 0.677316 163.394 0.48584 163.561 0.48584C163.779 0.48584 163.923 0.581587 164.21 1.13207L169.87 12.5032L175.531 0.988474C175.698 0.653395 175.892 0.48584 176.084 0.48584Z" fill="black"/>
<path d="M122.689 0.940595C125.329 0.940595 126.286 1.80463 126.624 2.09184C127.079 2.52504 127.679 3.43455 127.679 4.53792C127.679 7.4172 125.377 9.48033 122.378 9.48033C122.282 9.48033 121.849 9.48031 121.753 9.45637C121.633 9.45637 121.49 9.38458 121.49 9.24097C121.49 9.07343 121.729 8.97532 122.186 8.97532C123.362 8.97532 125.015 7.75226 125.015 5.6652C125.015 4.99504 124.944 3.65235 123.768 2.64472C123 1.97217 122.139 1.87644 121.657 1.87644C121.346 1.87644 120.939 1.90036 120.746 1.97216C120.626 2.02003 120.578 2.13971 120.578 2.35511V10.4401C120.578 12.3094 120.578 13.9177 120.674 14.8057C120.746 15.3801 120.868 15.7654 121.49 15.8612C121.801 15.9091 122.258 15.933 122.569 15.933C122.809 15.933 122.904 16.0526 122.904 16.1484C122.904 16.292 122.737 16.3638 122.521 16.3638C121.107 16.3638 119.618 16.292 119.068 16.292C118.587 16.292 117.244 16.3638 116.404 16.3638C116.141 16.3638 115.997 16.292 115.997 16.1484C115.997 16.0526 116.069 15.933 116.332 15.933C116.646 15.933 116.885 15.9091 117.076 15.8612C117.507 15.7654 117.629 15.3801 117.701 14.7817C117.797 13.9177 117.797 12.3094 117.797 10.4401V6.84036C117.797 3.74807 117.797 3.17125 117.773 2.52263C117.725 1.82854 117.531 1.61314 116.861 1.41927C116.694 1.3738 116.332 1.34987 116.021 1.34747C115.806 1.34987 115.662 1.27568 115.662 1.13207C115.662 0.988468 115.829 0.940595 116.141 0.940595C117.244 0.940595 118.587 0.988474 119.187 0.988474C120.051 0.988474 121.729 0.940595 122.689 0.940595Z" fill="black"/>
<path d="M74.5813 37.2177C74.5813 36.6241 74.5574 36.0377 74.531 35.4537C73.2194 34.8745 71.5871 34.2833 69.7155 33.7089C69.6772 33.6945 69.6437 33.6778 69.6054 33.6634C67.425 32.9765 64.7874 32.3422 61.7909 31.7941C55.5321 30.6836 47.7846 29.9368 39.7044 29.8243V31.392C40.7791 32.0023 41.9351 32.6797 43.1485 33.4097C49.5126 33.7065 55.0175 34.4245 59.2539 34.9894C61.8723 35.3388 67.2191 36.3369 69.7992 37.153C69.8112 37.1578 69.8184 37.1578 69.8304 37.1602C71.635 37.7131 73.2266 38.2827 74.5406 38.8476C74.5645 38.3067 74.5813 37.7634 74.5813 37.2177ZM69.4785 32.742C71.3932 33.3188 73.0854 33.9148 74.4712 34.5059C74.1241 29.6999 72.8748 25.15 70.8835 21.0214C69.3995 20.289 66.9822 19.4992 64 18.7596C66.8505 22.8308 68.7653 27.5937 69.4785 32.742ZM70.4 20.0903C70.4096 20.0951 70.4215 20.0999 70.4335 20.1047C69.7633 18.8098 69.0142 17.5677 68.2052 16.3686C66.1062 15.6673 63.3633 14.9613 60.2663 14.3342C60.2686 14.3366 60.271 14.3389 60.271 14.3413C60.2615 14.3389 60.2495 14.3366 60.2399 14.3342C60.2399 14.3366 60.2399 14.3366 60.2399 14.3366C59.644 14.2025 59.0288 14.0709 58.3826 13.944C53.1339 12.9914 46.5041 12.2782 39.7044 12.1681V15.4232C46.7818 15.4974 53.6461 16.0431 59.0887 17.0746C60.7258 17.3882 62.1403 17.6753 63.3801 17.9482C66.2833 18.6375 68.7222 19.3866 70.4072 20.1047C70.4048 20.0999 70.4024 20.0951 70.4 20.0903ZM59.3879 13.4989C62.5233 14.0996 65.3523 14.7913 67.6045 15.495C61.2739 6.68003 51.1976 0.753924 39.7116 0.0717996V5.05249C47.2868 5.5575 54.1391 8.67375 59.3879 13.4989ZM57.1668 19.9659C52.5906 20.5666 46.8847 21.1171 39.7044 21.2081V24.87C47.2748 24.7743 53.4402 24.1999 58.2438 23.5273C60.9508 23.0989 63.3538 22.6154 65.3403 22.1535C64.6821 21.0453 63.9426 19.985 63.1312 18.9702C61.4654 19.3412 59.4597 19.6763 57.1668 19.9659ZM38.8954 30.9349C38.96 30.9684 39.0295 31.0115 39.0941 31.0474V4.47327V0.0454682C38.4981 0.0167472 37.895 0 37.2918 0C36.6863 0 36.0856 0.0167472 35.4872 0.0454682V4.47327V5.12429V12.1705V15.4184V21.2128V24.8724V29.0608C36.6265 29.6783 37.7657 30.3055 38.8954 30.9349ZM26.9307 24.5612C29.3744 24.7144 32.0167 24.8245 34.8769 24.8676V21.2057C28.5056 21.1123 23.185 20.6934 19.0564 20.1573C18.482 20.0831 17.9458 20.0042 17.4121 19.9252C20.3345 21.2727 23.5656 22.8475 26.9307 24.5612ZM16.0191 16.8879C21.287 15.9617 27.3448 15.4902 34.8769 15.4208V12.1753C28.0293 12.2902 21.7418 12.7689 16.7228 13.6903C15.6721 13.8962 14.6429 14.1187 13.6545 14.3557C10.8972 14.9229 8.48943 15.5811 6.65607 16.1867C7.94373 16.3183 9.71965 16.718 12.1083 17.6251C13.2954 17.3882 14.5927 17.144 16.0191 16.8879ZM15.4639 13.3552C20.6767 8.67132 27.4262 5.65323 34.8697 5.1554V0.0717996C23.4363 0.75153 13.4007 6.62974 7.06536 15.3777C9.15481 14.7147 11.8761 14.0087 15.0522 13.4199C15.1862 13.3959 15.3298 13.3768 15.4639 13.3552ZM13.6808 19.1114C9.87764 17.4552 7.46984 16.9837 6.01225 16.919C5.67717 17.4384 5.33969 17.9554 5.02616 18.4891C4.72219 18.9678 4.44217 19.48 4.2124 19.9372C4.20044 19.9611 4.18608 19.9802 4.1765 20.0017H4.17891C3.94436 20.4685 3.76244 20.873 3.65473 21.1123C3.64755 21.1243 3.61884 21.1985 3.57815 21.2918C3.29573 21.8925 3.03247 22.5029 2.78116 23.1204C4.36799 23.3478 6.57471 23.9437 9.61914 25.2673C10.4712 25.6383 11.364 26.038 12.2926 26.4616C14.8871 27.62 17.8262 29.0345 21.007 30.6429C20.9998 30.6453 20.9926 30.6453 20.9855 30.6453C25.3487 32.8401 29.9847 35.2909 34.4939 37.8016C39.2042 40.4224 45.8746 44.6396 51.4992 48.4619C51.5638 48.505 51.6308 48.5505 51.6954 48.5936C55.197 50.9774 58.2773 53.2009 60.1945 54.771C63.27 57.2912 65.2494 59.0791 66.4341 60.441C67.0803 59.632 67.705 58.8039 68.2818 57.9398C68.2794 57.9375 68.2747 57.9374 68.2699 57.935C68.3704 57.7962 68.4948 57.6047 68.6313 57.3798C68.6385 57.3822 68.6456 57.3846 68.6528 57.387C69.1602 56.5972 69.6341 55.7858 70.0816 54.9576C70.0721 54.9529 70.0577 54.948 70.0458 54.9433C70.1726 54.6919 70.2732 54.4766 70.3282 54.3593C70.3474 54.3689 70.3737 54.3808 70.3928 54.3904C70.4048 54.3713 70.412 54.3497 70.4215 54.3306C69.4115 53.1052 67.626 51.4513 64.8592 49.1536C63.0498 47.6817 60.9891 46.1284 58.7536 44.5319C56.0658 42.634 52.9065 40.5086 49.7209 38.4526C47.0378 36.7342 44.2615 35.0157 41.4564 33.3379C41.466 33.3379 41.4779 33.3379 41.4899 33.3379C40.4272 32.7108 39.4172 32.1268 38.4862 31.6098C29.7047 26.7201 20.4326 22.0482 13.6808 19.1114ZM7.19461 25.1381C5.15541 24.3794 3.61885 24.0131 2.48676 23.8648C1.22304 27.1629 0.404492 30.6812 0.124462 34.3527C1.44324 33.7902 3.13537 33.1703 5.14105 32.5576C5.5216 29.9679 6.23485 27.4884 7.19461 25.1381ZM10.543 31.4711C11.4405 31.2868 12.3787 31.1072 13.3577 30.9373C14.9876 30.674 16.6845 30.4467 18.4556 30.2504C15.0618 28.5654 11.8809 27.0648 9.12133 25.8561C8.87481 25.7484 8.64503 25.6526 8.40808 25.5545C7.91743 26.7344 7.49858 27.9503 7.15392 29.1973C8.15437 29.9057 9.28885 30.6645 10.543 31.4711ZM5.02857 33.4911C3.03006 34.1134 1.33073 34.7429 0.0550366 35.2981C0.0239222 35.9348 0 36.5738 0 37.2177C0 37.7155 0.0167525 38.2085 0.0358998 38.7016C1.2733 38.1702 2.85294 37.5863 4.71741 37.0023C4.74374 36.9951 4.76529 36.9926 4.79162 36.9855C7.28317 36.2004 10.2007 35.7265 12.7425 35.2646C16.4571 34.6567 20.7078 34.1253 25.3295 33.7592C23.3645 32.7324 21.4235 31.7439 19.5422 30.8057C17.0004 31.0953 14.6046 31.4327 12.4314 31.8181C9.09499 32.4116 7.29035 32.7539 5.02857 33.5078C5.02857 33.503 5.02857 33.4983 5.02857 33.4911ZM4.79878 37.8758C2.91277 38.4694 1.30682 39.0654 0.0837784 39.5991C0.418857 44.9077 1.86447 49.9124 4.18848 54.3857C5.0908 53.9261 6.6561 53.3182 8.73837 52.6935C6.31623 48.28 4.89691 43.2395 4.79878 37.8758ZM8.96575 53.3038C6.93374 53.9117 5.36841 54.5053 4.49482 54.9529C4.94239 55.7762 5.41389 56.5852 5.9189 57.3702C7.05338 56.937 8.53732 56.4584 10.2845 55.9845C11.3855 55.6613 14.473 55.0869 16.0191 54.8092C21.287 53.883 27.3448 53.4115 34.8769 53.3421V50.0966C28.0293 50.2139 22.3832 50.707 17.3164 51.5064C16.2657 51.7122 14.0996 52.0377 13.1111 52.2746C11.9814 52.5068 9.98772 53.0261 9.06625 53.2751C9.05429 53.2775 9.04232 53.2822 9.03035 53.2846C9.01121 53.2894 8.9849 53.2966 8.96575 53.3014C8.96575 53.3038 8.96575 53.3038 8.96575 53.3038ZM16.4715 60.9483C16.8999 61.0154 17.3427 61.0824 17.7975 61.147C22.2516 61.6927 27.9623 62.1643 34.8434 62.2672V58.6053C28.3835 58.5095 23.6206 58.306 19.4345 57.7699C16.8951 57.4444 14.2839 57.0519 12.3381 56.6689C13.5779 58.2199 14.9613 59.6535 16.4715 60.9483ZM11.1366 56.4296C9.19551 56.9322 7.53926 57.454 6.28751 57.9231C12.5559 67.2957 22.9505 73.655 34.8697 74.3635V69.3828C25.1453 68.7342 16.6079 63.7845 11.1366 56.4296ZM34.8769 41.7532C27.0815 41.6479 20.7462 41.0543 15.7439 40.2788C13.7957 39.9581 9.39894 39.2257 5.57904 38.1248C5.61973 39.5249 5.7442 40.9011 5.962 42.2486C8.49184 42.9762 11.7397 43.7325 15.617 44.3022C20.6576 45.0824 27.0336 45.6808 34.8769 45.7861V41.7532ZM26.5191 34.3934C23.0271 34.6351 19.839 34.9535 16.8903 35.3604C19.7265 37.0382 22.8715 38.8428 26.2295 40.7407C28.9149 40.8867 31.7917 40.9777 34.8769 41.0088V38.9672C34.695 38.8619 34.5059 38.7518 34.3288 38.6537C31.7415 37.2008 29.1159 35.7696 26.5191 34.3934ZM35.4872 58.61C35.48 58.61 35.4705 58.61 35.4633 58.61V62.2695C35.4705 62.2695 35.48 62.2695 35.4872 62.2719V69.4163V73.2434V74.3898C36.0856 74.4185 36.6863 74.4353 37.2918 74.4353C37.895 74.4353 38.4981 74.4185 39.0941 74.3898V73.2434V62.2743C39.1037 62.2743 39.1108 62.2743 39.1204 62.2743V58.6124C39.1108 58.6124 39.1037 58.6124 39.0941 58.6124V53.3397V50.0846V41.4109C37.8304 40.6426 36.6169 39.9222 35.4872 39.2712V41.758V45.7909V58.61ZM45.7621 45.6042C43.7158 44.2782 41.6622 42.981 39.7044 41.7843V45.7861C41.8298 45.7597 43.8402 45.6951 45.7621 45.6042ZM52.4781 50.1899C50.6399 48.9166 48.6725 47.5931 46.6764 46.2815C44.4889 46.4036 42.1744 46.4874 39.7044 46.5209V48.2633C40.4464 48.6701 41.174 49.0627 41.9064 49.46C45.8052 49.5988 49.3475 49.8381 52.4781 50.1899ZM53.9428 51.1114C49.6323 50.5346 44.812 50.1708 39.7044 50.0894V53.3445C46.7818 53.4186 53.6461 53.9644 59.0887 54.9959C59.1342 55.0055 59.1892 55.0151 59.2371 55.0247C57.8776 53.9381 56.049 52.593 53.9428 51.1114ZM56.3363 56.8293C57.8345 56.6642 59.2634 56.4679 60.6516 56.2501C60.5511 56.1639 60.4554 56.0849 60.3524 55.9988C60.3117 55.9653 60.2663 55.9294 60.228 55.8959C59.5219 55.7594 58.8039 55.6254 58.0667 55.4962C56.2286 55.1755 54.1726 54.9074 51.9539 54.6848C53.4594 55.4364 54.9337 56.1616 56.3363 56.8293ZM61.4223 56.8293C59.8761 57.0806 58.0547 57.3247 56.4607 57.5234C51.8223 58.1241 47.0187 58.5166 39.7379 58.6076V62.2672C47.1767 62.1762 53.2655 61.6305 58.0667 60.9867C59.4286 59.8235 60.6803 58.5453 61.8244 57.1715C61.6903 57.0566 61.5611 56.9466 61.4223 56.8293ZM39.7116 69.2799V74.3635C50.2378 73.7364 59.5698 68.7007 65.9243 61.0776C65.1656 60.1849 64.0048 59.0647 62.3773 57.6478C56.8963 64.2632 48.8353 68.6696 39.7116 69.2799ZM60.161 44.2304C63.3538 43.7086 66.269 43.0959 68.6624 42.4736C68.8969 41.095 69.0381 39.6852 69.0836 38.2516C66.2211 39.0605 62.8344 39.7977 60.0413 40.2046C58.4497 40.4511 56.712 40.6785 54.8452 40.8819C56.5995 42.0619 58.2702 43.2132 59.778 44.2854C59.9049 44.2663 60.0365 44.2495 60.161 44.2304ZM70.8069 53.5431C72.8628 49.3259 74.1577 44.6708 74.4856 39.7451C73.1955 39.1779 71.6015 38.601 69.7777 38.0362C69.6628 42.2845 68.7078 46.3174 67.0971 50.0009C68.7773 51.4513 69.9835 52.5977 70.8069 53.5431Z" fill="#AB8F45"/>
<path d="M17.9889 41.7771V41.7914C17.9889 47.2412 20.1717 52.2028 23.6757 55.8049C27.1844 59.4142 32.0167 61.6568 37.3038 61.6568C42.6172 61.6568 47.4399 59.4285 50.9343 55.8336C54.4287 52.2387 56.5948 47.2771 56.5948 41.8106V14.9038L18.0129 14.899L17.9889 41.7771Z" fill="#FFFFFE"/>
<path d="M48.4787 23.4794L48.4811 39.8624L48.4667 41.5952C48.4667 42.0523 48.4404 42.5717 48.3901 43.0145C48.0886 45.6042 46.9349 47.8636 45.2284 49.618C43.2299 51.6763 40.4703 52.9496 37.4307 52.9496C34.4054 52.9496 31.7104 51.6308 29.7047 49.5653C27.644 47.4495 26.4521 44.5439 26.4521 41.5402L26.4473 23.4387L48.4787 23.4794Z" fill="#FFFFFE"/>
<path d="M18.9918 41.4229V41.4372C18.9918 46.6525 21.0812 51.3986 24.432 54.8476C27.79 58.3013 32.4164 60.4482 37.4737 60.4482C42.5597 60.4482 47.1767 58.3156 50.5203 54.8739C53.8615 51.4345 55.9342 46.686 55.9342 41.454V15.708L19.0133 15.7008L18.9918 41.4229ZM48.5122 23.41V39.7954L48.5002 41.5282C48.5002 41.9853 48.4739 42.5047 48.4212 42.9474C48.1221 45.5371 46.9684 47.7941 45.2619 49.5509C43.2634 51.6092 40.5038 52.8825 37.4618 52.8825C34.4389 52.8825 31.7415 51.5638 29.7334 49.4982C27.6751 47.3801 26.4808 44.4769 26.4808 41.4731L26.4784 23.3693L48.5122 23.41Z" fill="#A02834"/>
<path d="M46.6501 38.5196V34.9152L41.7963 34.9127L41.7867 38.5149V38.5173C41.7867 39.2568 42.0619 39.9317 42.5023 40.4224C42.9451 40.913 43.553 41.217 44.2208 41.217C44.8886 41.217 45.4965 40.9155 45.9369 40.4248C46.3773 39.9366 46.6501 39.2616 46.6501 38.5196ZM43.4382 36.2818C43.4382 36.5546 43.2227 36.7796 42.9571 36.7796C42.6914 36.7796 42.476 36.5546 42.476 36.2818C42.476 36.0089 42.6914 35.7863 42.9571 35.7863C43.2227 35.7863 43.4382 36.0089 43.4382 36.2818ZM43.4429 39.0199C43.4429 39.2951 43.2275 39.5177 42.9619 39.5177C42.6962 39.5177 42.4808 39.2951 42.4808 39.0199C42.4808 38.747 42.6962 38.5244 42.9619 38.5244C43.2275 38.5244 43.4429 38.747 43.4429 39.0199ZM44.7234 37.6221C44.7234 37.8949 44.508 38.1175 44.2423 38.1175C43.9791 38.1175 43.7613 37.8949 43.7613 37.6221C43.7613 37.3468 43.9791 37.1243 44.2423 37.1243C44.508 37.1243 44.7234 37.3468 44.7234 37.6221ZM45.1088 39.0174C45.1088 38.7422 45.3242 38.5196 45.5898 38.5196C45.8555 38.5196 46.0709 38.7422 46.0709 39.0174C46.0709 39.2903 45.8555 39.5129 45.5898 39.5129C45.3242 39.5129 45.1088 39.2903 45.1088 39.0174ZM46.0733 36.2842C46.0733 36.557 45.8579 36.782 45.5922 36.782C45.3265 36.782 45.1111 36.557 45.1111 36.2842C45.1111 36.0113 45.3265 35.7887 45.5922 35.7887C45.8579 35.7887 46.0733 36.0113 46.0733 36.2842ZM39.2186 40.4128C39.6589 39.9246 39.9318 39.2496 39.9318 38.5053V34.9008L35.0755 34.8984L35.0684 38.5005V38.5029C35.0684 39.2448 35.3436 39.9174 35.784 40.408C36.2268 40.8987 36.8347 41.2026 37.5025 41.2026C38.1702 41.2026 38.7782 40.9011 39.2186 40.4128ZM36.7198 36.2674C36.7198 36.5427 36.502 36.7653 36.2387 36.7653C35.9731 36.7653 35.7577 36.5427 35.7577 36.2674C35.7577 35.9946 35.9731 35.772 36.2387 35.772C36.502 35.772 36.7198 35.9946 36.7198 36.2674ZM36.7246 39.0079C36.7246 39.2807 36.5092 39.5033 36.2435 39.5033C35.9778 39.5033 35.7625 39.2807 35.7625 39.0079C35.7625 38.7326 35.9778 38.51 36.2435 38.51C36.5092 38.51 36.7246 38.7326 36.7246 39.0079ZM38.0051 37.6078C38.0051 37.8806 37.7897 38.1056 37.524 38.1056C37.2607 38.1056 37.0429 37.8806 37.0429 37.6078C37.0429 37.3349 37.2607 37.1099 37.524 37.1099C37.7897 37.1099 38.0051 37.3349 38.0051 37.6078ZM39.355 36.2699C39.355 36.5451 39.1396 36.7676 38.8739 36.7676C38.6082 36.7676 38.3928 36.5451 38.3928 36.2699C38.3928 35.997 38.6082 35.7744 38.8739 35.7744C39.1396 35.7744 39.355 35.997 39.355 36.2699ZM39.3526 39.0031C39.3526 39.276 39.1348 39.5009 38.8715 39.5009C38.6058 39.5009 38.3904 39.276 38.3904 39.0031C38.3904 38.7303 38.6058 38.5077 38.8715 38.5077C39.1348 38.5077 39.3526 38.7303 39.3526 39.0031ZM39.2161 31.7032C39.6565 31.2149 39.9294 30.54 39.9294 29.798V26.1935L35.0755 26.1911L35.066 29.7932V29.7956C35.066 30.5352 35.3412 31.2101 35.7816 31.7008C36.2244 32.1914 36.8323 32.4954 37.5001 32.4954C38.1678 32.4954 38.7758 32.1914 39.2161 31.7032ZM36.7174 27.5602C36.7174 27.833 36.502 28.058 36.2364 28.058C35.9707 28.058 35.7553 27.833 35.7553 27.5602C35.7553 27.2873 35.9707 27.0647 36.2364 27.0647C36.502 27.0647 36.7174 27.2873 36.7174 27.5602ZM36.7222 30.2982C36.7222 30.5735 36.5068 30.7961 36.2411 30.7961C35.9779 30.7961 35.7601 30.5735 35.7601 30.2982C35.7601 30.0254 35.9779 29.8028 36.2411 29.8028C36.5068 29.8028 36.7222 30.0254 36.7222 30.2982ZM38.0051 28.9005C38.0051 29.1733 37.7873 29.3959 37.5216 29.3959C37.2584 29.3959 37.0405 29.1733 37.0405 28.9005C37.0405 28.6253 37.2584 28.4026 37.5216 28.4026C37.7873 28.4026 38.0051 28.6253 38.0051 28.9005ZM39.3526 27.5626C39.3526 27.8354 39.1372 28.0604 38.8715 28.0604C38.6058 28.0604 38.3904 27.8354 38.3904 27.5626C38.3904 27.2897 38.6058 27.0672 38.8715 27.0672C39.1372 27.0672 39.3526 27.2897 39.3526 27.5626ZM39.3502 30.2959C39.3502 30.5687 39.1348 30.7913 38.8691 30.7913C38.6034 30.7913 38.388 30.5687 38.388 30.2959C38.388 30.0206 38.6034 29.798 38.8691 29.798C39.1348 29.798 39.3502 30.0206 39.3502 30.2959ZM39.9079 43.5315L35.054 43.5291L35.0444 47.1312V47.1335C35.0444 47.8731 35.3197 48.5481 35.7601 49.0387C36.2028 49.5294 36.8108 49.8333 37.4785 49.8333C38.1463 49.8333 38.7542 49.5318 39.1946 49.0411C39.635 48.5529 39.9079 47.8803 39.9079 47.1359V43.5315ZM36.6959 44.8981C36.6959 45.1709 36.4805 45.3959 36.2148 45.3959C35.9491 45.3959 35.7337 45.1709 35.7337 44.8981C35.7337 44.6252 35.9491 44.4026 36.2148 44.4026C36.4805 44.4026 36.6959 44.6252 36.6959 44.8981ZM36.7007 47.6362C36.7007 47.9114 36.4853 48.134 36.2196 48.134C35.9539 48.134 35.7385 47.9114 35.7385 47.6362C35.7385 47.3633 35.9539 47.1407 36.2196 47.1407C36.4853 47.1407 36.7007 47.3633 36.7007 47.6362ZM37.9812 46.2384C37.9812 46.5112 37.7657 46.7338 37.5001 46.7338C37.2368 46.7338 37.019 46.5112 37.019 46.2384C37.019 45.9655 37.2368 45.7406 37.5001 45.7406C37.7657 45.7406 37.9812 45.9655 37.9812 46.2384ZM38.3665 47.6338C38.3665 47.3585 38.5819 47.1359 38.8476 47.1359C39.1133 47.1359 39.3286 47.3585 39.3286 47.6338C39.3286 47.9066 39.1133 48.1292 38.8476 48.1292C38.5819 48.1292 38.3665 47.9066 38.3665 47.6338ZM39.331 44.9005C39.331 45.1733 39.1156 45.3983 38.85 45.3983C38.5843 45.3983 38.3689 45.1733 38.3689 44.9005C38.3689 44.6276 38.5843 44.4051 38.85 44.4051C39.1156 44.4051 39.331 44.6276 39.331 44.9005ZM32.4835 40.4296C32.9238 39.9413 33.1967 39.2664 33.1967 38.522V34.9199L28.3405 34.9152L28.3333 38.5196C28.3333 39.2616 28.6085 39.9366 29.0489 40.4248C29.4917 40.9155 30.0996 41.2218 30.765 41.2218C31.4352 41.2218 32.0431 40.9178 32.4835 40.4296ZM29.9847 36.2866C29.9847 36.5594 29.7669 36.782 29.5037 36.782C29.238 36.782 29.0226 36.5594 29.0226 36.2866C29.0226 36.0113 29.238 35.7887 29.5037 35.7887C29.7669 35.7887 29.9847 36.0113 29.9847 36.2866ZM29.9895 39.0247C29.9895 39.2975 29.7741 39.52 29.5084 39.52C29.2428 39.52 29.0274 39.2975 29.0274 39.0247C29.0274 38.7494 29.2428 38.5268 29.5084 38.5268C29.7741 38.5268 29.9895 38.7494 29.9895 39.0247ZM31.27 37.6245C31.27 37.8997 31.0546 38.1223 30.7889 38.1223C30.5233 38.1223 30.3078 37.8997 30.3078 37.6245C30.3078 37.3516 30.5233 37.129 30.7889 37.129C31.0546 37.129 31.27 37.3516 31.27 37.6245ZM32.6199 36.289C32.6199 36.5618 32.4045 36.7844 32.1388 36.7844C31.8731 36.7844 31.6577 36.5618 31.6577 36.289C31.6577 36.0137 31.8731 35.7911 32.1388 35.7911C32.4045 35.7911 32.6199 36.0137 32.6199 36.289ZM32.6175 39.0199C32.6175 39.2951 32.3997 39.5177 32.1364 39.5177C31.8708 39.5177 31.6553 39.2951 31.6553 39.0199C31.6553 38.747 31.8708 38.5244 32.1364 38.5244C32.3997 38.5244 32.6175 38.747 32.6175 39.0199Z" fill="#1A1919"/>
<path d="M39.1827 20.021L39.7259 17.3906V16.4427H38.8093V17.3906H37.9644V16.4427H37.0477V17.3906H36.1215V16.4427H35.2048V17.3906L35.7553 19.9228L34.683 22.8739H40.2477L39.1827 20.021ZM38.2229 22.613H36.7078C36.7078 21.6101 37.0477 20.7988 37.4642 20.7988C37.883 20.7988 38.2229 21.6101 38.2229 22.613Z" fill="#FFFFFE"/>
<path d="M53.7992 20.021L54.3426 17.3906V16.4427H53.4259V17.3906H52.581V16.4427H51.6643V17.3906H50.738V16.4427H49.8214V17.3906L50.3719 19.9228L49.2996 22.8739H54.8643L53.7992 20.021ZM52.8395 22.613H51.3245C51.3245 21.6101 51.6643 20.7988 52.0808 20.7988C52.4996 20.7988 52.8395 21.6101 52.8395 22.613Z" fill="#FFFFFE"/>
<path d="M53.7992 35.5183L54.3426 32.8879V31.9401H53.4259V32.8879H52.581V31.9401H51.6643V32.8879H50.738V31.9401H49.8214V32.8879L50.3719 35.4202L49.2996 38.3713H54.8643L53.7992 35.5183ZM52.8395 38.1104H51.3245C51.3245 37.1075 51.6643 36.2962 52.0808 36.2962C52.4996 36.2962 52.8395 37.1075 52.8395 38.1104Z" fill="#FFFFFE"/>
<path d="M49.7831 52.5403L51.9659 51.0779L52.6145 50.4077L51.9659 49.7376L51.3173 50.4077L50.7213 49.7903L51.3699 49.1201L50.7213 48.4499L50.0727 49.1201L49.4169 48.4428L50.0655 47.7726L49.4169 47.1025L48.7683 47.7726L47.428 49.9674L44.6492 51.2694L48.584 55.3358L49.7831 52.5403ZM47.3298 53.67L46.26 52.5642C46.9469 51.8558 47.7415 51.5279 48.0383 51.8342C48.3327 52.1406 48.0167 52.9615 47.3298 53.67Z" fill="#FFFFFE"/>
<path d="M27.5961 50.0296L26.1816 47.7726L25.533 47.1025L24.8844 47.7726L25.533 48.4428L24.937 49.0603L24.2884 48.3901L23.6398 49.0603L24.2884 49.7304L23.6326 50.4077L22.984 49.7376L22.3354 50.4077L22.984 51.0779L25.1069 52.4637L26.3659 55.3358L30.3007 51.2694L27.5961 50.0296ZM28.6899 52.5642L27.62 53.6724C26.9331 52.9616 26.6172 52.1406 26.914 51.8342C27.2084 51.5279 28.0054 51.8558 28.6899 52.5642Z" fill="#FFFFFE"/>
<path d="M24.3865 20.021L24.9298 17.3906V16.4427H24.0131V17.3906H23.1683V16.4427H22.2516V17.3906H21.3254V16.4427H20.4087V17.3906L20.9592 19.9228L19.8869 22.8739H25.4516L24.3865 20.021ZM23.4268 22.613H21.9117C21.9117 21.6101 22.2516 20.7988 22.668 20.7988C23.0869 20.7988 23.4268 21.6101 23.4268 22.613Z" fill="#FFFFFE"/>
<path d="M24.3865 35.5183L24.9298 32.8879V31.9401H24.0131V32.8879H23.1683V31.9401H22.2516V32.8879H21.3254V31.9401H20.4087V32.8879L20.9592 35.4202L19.8869 38.3713H25.4516L24.3865 35.5183ZM23.4268 38.1104H21.9117C21.9117 37.1075 22.2516 36.2962 22.668 36.2962C23.0869 36.2962 23.4268 37.1075 23.4268 38.1104Z" fill="#FFFFFE"/>
</g>
<defs>
<clipPath id="clip0_642_3672">
<rect width="222.399" height="80" fill="white"/>
</clipPath>
</defs>
</svg>
